<?xml version="1.0" encoding="utf-8"?>
<!-- Generator: Adobe Illustrator 17.0.0, SVG Export Plug-In . SVG Version: 6.00 Build 0)  -->
<!DOCTYPE svg PUBLIC "-//W3C//DTD SVG 1.1//EN" "http://www.w3.org/Graphics/SVG/1.1/DTD/svg11.dtd">
<svg version="1.1" id="Capa_1" xmlns="http://www.w3.org/2000/svg" xmlns:xlink="http://www.w3.org/1999/xlink" x="0px" y="0px"
	 width="817.142px" height="280px" viewBox="9.645 28 817.142 280" enable-background="new 9.645 28 817.142 280"
	 xml:space="preserve">
<linearGradient id="SVGID_1_" gradientUnits="userSpaceOnUse" x1="-227.9768" y1="215.7903" x2="28.0238" y2="215.7903" gradientTransform="matrix(1.0937 0 0 1.0937 258.9931 -68.0192)">
	<stop  offset="0" style="stop-color:#00F2FE"/>
	<stop  offset="0.021" style="stop-color:#03EFFE"/>
	<stop  offset="0.293" style="stop-color:#24D2FE"/>
	<stop  offset="0.554" style="stop-color:#3CBDFE"/>
	<stop  offset="0.796" style="stop-color:#4AB0FE"/>
	<stop  offset="1" style="stop-color:#4FACFE"/>
</linearGradient>
<path fill="url(#SVGID_1_)" d="M159.758,110.892c-12.794,12.794-12.794,33.61,0,46.404c6.397,6.396,14.799,9.595,23.202,9.595
	c8.402,0,16.805-3.199,23.202-9.595c12.794-12.794,12.794-33.61,0-46.404C193.368,98.099,172.551,98.099,159.758,110.892z
	 M190.694,141.828c-4.265,4.265-11.204,4.265-15.468,0c-4.264-4.265-4.264-11.203,0-15.467c2.132-2.133,4.933-3.199,7.734-3.199
	c2.801,0,5.602,1.066,7.734,3.198C194.958,130.625,194.958,137.563,190.694,141.828z M217.926,99.719
	c-4.271-4.272-4.271-11.197,0-15.468c4.271-4.271,11.197-4.272,15.468,0c4.271,4.272,4.271,11.197,0,15.468
	C229.122,103.99,222.197,103.99,217.926,99.719z M152.863,93.14c32.421-31.732,79.44-40.697,104.59-43.216
	c3.864-0.388,6.409,1.567,7.581,2.767c2.052,2.101,3.021,4.996,2.656,7.943c-2.115,17.111-7.148,42.625-19.112,66.999
	c-2.662,5.422-0.423,11.976,4.999,14.638c5.423,2.661,11.976,0.422,14.638-5c13.304-27.104,18.864-55.177,21.185-73.955
	c1.185-9.584-1.994-19.03-8.72-25.914c-6.668-6.826-15.931-10.198-25.407-9.245c-13.61,1.363-34.378,4.59-56.03,12.221
	c-24.66,8.693-45.434,21.204-61.743,37.188c-0.036,0.035-0.072,0.071-0.108,0.107l-2.22,2.237l-117.957,38.18
	c-3.623,1.173-6.376,4.146-7.266,7.85c-0.89,3.703,0.21,7.603,2.904,10.294l53.39,53.337c-11.205,1.649-21.993,6.774-30.599,15.38
	c-8.787,8.787-15.566,26.555-20.723,54.319c-3.582,19.285-5.001,36.179-5.06,36.889c-0.265,3.203,0.894,6.361,3.166,8.635
	c2.06,2.06,4.845,3.203,7.733,3.203c0.299,0,0.6-0.012,0.901-0.037c0.71-0.058,17.604-1.477,36.889-5.06
	c27.764-5.158,45.531-11.935,54.319-20.723c8.619-8.619,13.748-19.427,15.388-30.652l53.325,53.272c2.076,2.074,4.867,3.2,7.731,3.2
	c0.879,0,1.765-0.106,2.639-0.323c3.722-0.925,6.687-3.732,7.815-7.398l36.346-118.124c1.776-5.774-1.464-11.894-7.237-13.67
	c-0.183-0.056-0.368-0.094-0.551-0.14c-4.01-1.717-8.83-0.934-12.083,2.356l-68.548,69.323 M147.694,240.023l-70.603-70.533
	l75.772-76.351 M85.509,220.385c1.589-1.57,3.692-2.433,5.928-2.433c1.638,0,3.202,0.469,4.548,1.334l2.551,2.548
	c0.868,1.347,1.338,2.913,1.338,4.554c0,2.233-0.862,4.333-2.428,5.922c-1.984,1.648-8.891,3.603-17.079,5.053
	C81.863,229.213,83.855,222.348,85.509,220.385z M33.053,284.771c3.173-25.236,9.792-56.082,18.059-64.348
	c3.949-3.949,8.731-6.758,13.948-8.277c-2.041,4.187-4.155,10.416-5.969,20.022c-1.669,8.832-2.347,16.602-2.375,16.929
	c-0.275,3.202,0.873,6.365,3.138,8.645c2.061,2.074,4.857,3.228,7.758,3.228c0.288,0,0.577-0.011,0.866-0.034
	c0.328-0.026,8.144-0.657,17.022-2.279c9.682-1.768,15.952-3.863,20.161-5.899c-1.486,5.113-4.238,9.932-8.262,13.955
	C89.135,274.979,58.288,281.597,33.053,284.771z M203.084,215.119L184.2,276.493l-21.029-21.008L203.084,215.119z M40.963,133.399
	l60.592-19.612L61.616,154.03L40.963,133.399z"/>
<g>
	<g>
		<linearGradient id="SVGID_2_" gradientUnits="userSpaceOnUse" x1="706.2391" y1="360.6291" x2="371.066" y2="25.456">
			<stop  offset="0" style="stop-color:#00F2FE"/>
			<stop  offset="0.021" style="stop-color:#03EFFE"/>
			<stop  offset="0.293" style="stop-color:#24D2FE"/>
			<stop  offset="0.554" style="stop-color:#3CBDFE"/>
			<stop  offset="0.796" style="stop-color:#4AB0FE"/>
			<stop  offset="1" style="stop-color:#4FACFE"/>
		</linearGradient>
		<path fill="url(#SVGID_2_)" d="M245.954,150.568c7.105,0.092,12.116,0.137,15.03,0.137c3.645,0,8.495-0.045,14.553-0.137
			l-2.034,29.053c-0.407,5.469-0.712,10.596-0.916,15.381c-0.203,4.785-0.304,8.09-0.304,9.912c0,3.464,0.25,6.357,0.751,8.682
			s1.412,4.296,2.732,5.913c1.32,1.618,3.153,2.837,5.499,3.657c2.344,0.82,4.792,1.23,7.342,1.23c2.186,0,4.235-0.298,6.148-0.895
			c1.501-0.488,2.845-1.167,4.029-2.035c1.047-0.814,1.958-1.765,2.732-2.85c0.956-1.302,1.798-2.93,2.527-4.883
			c0.729-1.845,1.274-4.232,1.64-7.163c0.41-2.984,0.957-9.768,1.642-20.35c0.592-9.009,1.048-17.257,1.368-24.745
			c0.273-7.272,0.523-10.908,0.752-10.908c6.881,0,12.304,0,16.269,0h13.876l-3.323,48.535c-0.045,0.912-0.067,1.664-0.067,2.256
			c-0.183,9.479-0.764,16.167-1.744,20.063s-2.609,7.28-4.889,10.151c-2.279,2.871-5.607,5.458-9.983,7.759
			c-4.376,2.302-9.345,3.931-14.907,4.888c-5.562,0.957-11.191,1.436-16.889,1.436c-5.106,0-10.029-0.365-14.77-1.094
			c-4.377-0.729-8.321-1.788-11.831-3.179c-3.51-1.39-6.564-3.019-9.162-4.888c-2.372-1.731-4.195-3.497-5.471-5.298
			c-1.276-1.8-2.279-3.953-3.009-6.46c-0.82-2.825-1.23-5.855-1.23-9.092c0-1.094,0.045-2.745,0.137-4.956
			c0.092-2.21,0.298-5.389,0.619-9.536l0.893-10.938c0.229-2.871,0.48-7.086,0.755-12.646L245.954,150.568z"/>
		<linearGradient id="SVGID_3_" gradientUnits="userSpaceOnUse" x1="706.2391" y1="360.6291" x2="371.066" y2="25.456">
			<stop  offset="0" style="stop-color:#00F2FE"/>
			<stop  offset="0.021" style="stop-color:#03EFFE"/>
			<stop  offset="0.293" style="stop-color:#24D2FE"/>
			<stop  offset="0.554" style="stop-color:#3CBDFE"/>
			<stop  offset="0.796" style="stop-color:#4AB0FE"/>
			<stop  offset="1" style="stop-color:#4FACFE"/>
		</linearGradient>
		<path fill="url(#SVGID_3_)" d="M350.938,243.879l1.357-17.5l1.766-34.18L354.807,168c0.045-2.598,0.068-5.195,0.068-7.793
			c0-1.959-0.023-5.172-0.068-9.639c6.018,0.137,10.85,0.205,14.498,0.205c3.51,0,8.318-0.103,14.428-0.308
			s11.284-0.308,15.524-0.308c6.108,0,10.633,0.388,13.573,1.162c2.939,0.775,5.596,1.994,7.967,3.657
			c2.371,1.664,4.331,3.612,5.881,5.845c1.55,2.233,2.712,4.774,3.487,7.622c0.775,2.849,1.163,5.754,1.163,8.716
			c0,6.107-1.481,11.689-4.443,16.748c-2.963,5.059-7.133,8.842-12.51,11.348c-5.378,2.507-11.416,3.76-18.115,3.76
			c-2.461,0-5.31-0.273-8.545-0.82c-0.365-2.096-1.049-5.218-2.051-9.365c-1.003-4.146-1.823-7.223-2.461-9.229
			c2.005,0.41,4.102,0.615,6.289,0.615c4.603,0,8.032-1.104,10.288-3.315c2.256-2.21,3.384-4.91,3.384-8.101
			c0-1.549-0.251-2.928-0.752-4.136c-0.502-1.207-1.299-2.198-2.393-2.974c-1.094-0.774-2.302-1.275-3.623-1.504
			c-1.322-0.228-2.826-0.342-4.512-0.342c-1.641,0-3.35,0.046-5.127,0.137l-5.742,0.41c-0.586,8.796-1.037,18.571-1.354,29.326
			c-0.586,19.597-0.879,31.354-0.879,35.273v8.887l-13.615-0.137C363.252,243.742,358.508,243.788,350.938,243.879z"/>
		<linearGradient id="SVGID_4_" gradientUnits="userSpaceOnUse" x1="706.2391" y1="360.6291" x2="371.066" y2="25.456">
			<stop  offset="0" style="stop-color:#00F2FE"/>
			<stop  offset="0.021" style="stop-color:#03EFFE"/>
			<stop  offset="0.293" style="stop-color:#24D2FE"/>
			<stop  offset="0.554" style="stop-color:#3CBDFE"/>
			<stop  offset="0.796" style="stop-color:#4AB0FE"/>
			<stop  offset="1" style="stop-color:#4FACFE"/>
		</linearGradient>
		<path fill="url(#SVGID_4_)" d="M520.811,221.115c-0.547,2.681-1.208,6.417-1.982,11.211c-0.775,4.794-1.299,8.507-1.572,11.143
			c-9.753,1.458-18.457,2.188-26.113,2.188c-7.383,0-14.253-0.923-20.61-2.769s-12.191-4.876-17.5-9.092
			c-5.31-4.215-9.104-9.171-11.382-14.868c-2.279-5.696-3.418-12.076-3.418-19.141c0-8.248,1.538-15.665,4.614-22.251
			c3.076-6.585,7.496-12.076,13.262-16.475c5.765-4.397,12.088-7.542,18.97-9.434c6.881-1.891,13.99-2.837,21.328-2.837
			c6.744,0,15.084,0.866,25.02,2.598l0.137,5.742c0.091,2.507,0.228,5.264,0.41,8.271l0.479,7.793
			c-5.332-1.275-9.65-2.142-12.954-2.598c-3.305-0.455-6.369-0.684-9.194-0.684c-6.152,0-11.689,1.23-16.611,3.691
			s-8.796,6.039-11.621,10.732c-2.826,4.694-4.238,9.89-4.238,15.586c0,5.195,1.185,9.65,3.555,13.364
			c2.369,3.715,5.571,6.586,9.604,8.613c4.033,2.028,9.012,3.042,14.937,3.042c3.235,0,6.756-0.262,10.562-0.786
			C510.294,223.634,515.068,222.619,520.811,221.115z"/>
		<linearGradient id="SVGID_5_" gradientUnits="userSpaceOnUse" x1="706.2391" y1="360.6291" x2="371.066" y2="25.456">
			<stop  offset="0" style="stop-color:#00F2FE"/>
			<stop  offset="0.021" style="stop-color:#03EFFE"/>
			<stop  offset="0.293" style="stop-color:#24D2FE"/>
			<stop  offset="0.554" style="stop-color:#3CBDFE"/>
			<stop  offset="0.796" style="stop-color:#4AB0FE"/>
			<stop  offset="1" style="stop-color:#4FACFE"/>
		</linearGradient>
		<path fill="url(#SVGID_5_)" d="M521.631,243.879l5.677-9.844l35.36-66.582l3.762-7.451c1.094-2.188,2.621-5.332,4.582-9.434
			c8.02,0.092,13.875,0.137,17.566,0.137c6.425,0,12.371-0.045,17.84-0.137l9.974,28.506l20.29,54.824l3.963,9.98
			c-7.894-0.091-12.683-0.137-14.37-0.137c-3.833,0-9.467,0.046-16.903,0.137c-2.002-7.52-4.891-16.36-8.667-26.523h-34.411
			c-3.962,8.021-8.06,16.862-12.294,26.523c-8.486-0.091-13.687-0.137-15.602-0.137
			C534.929,243.742,529.341,243.788,521.631,243.879z M574.557,197.463h21.233c-5.277-16.059-8.167-24.907-8.667-26.546
			c-3.005,6.688-5.555,12.17-7.648,16.446L574.557,197.463z"/>
		<linearGradient id="SVGID_6_" gradientUnits="userSpaceOnUse" x1="706.2391" y1="360.6291" x2="371.066" y2="25.456">
			<stop  offset="0" style="stop-color:#00F2FE"/>
			<stop  offset="0.021" style="stop-color:#03EFFE"/>
			<stop  offset="0.293" style="stop-color:#24D2FE"/>
			<stop  offset="0.554" style="stop-color:#3CBDFE"/>
			<stop  offset="0.796" style="stop-color:#4AB0FE"/>
			<stop  offset="1" style="stop-color:#4FACFE"/>
		</linearGradient>
		<path fill="url(#SVGID_6_)" d="M647.002,242.443c-0.593-9.707-1.276-17.477-2.051-23.311c5.113,2.279,9.668,3.862,13.662,4.751
			c3.995,0.889,7.499,1.333,10.514,1.333c3.971,0,7.133-0.581,9.484-1.743s3.527-2.882,3.527-5.161c0-0.774-0.114-1.515-0.343-2.222
			c-0.229-0.706-0.662-1.504-1.301-2.393c-0.64-0.889-1.554-1.856-2.74-2.905l-12.879-11.211c-3.015-2.552-5.114-4.397-6.302-5.537
			c-2.421-2.324-4.305-4.488-5.651-6.494c-1.349-2.005-2.33-4.044-2.946-6.118c-0.616-2.073-0.924-4.272-0.924-6.597
			c0-2.779,0.489-5.503,1.47-8.169c0.979-2.666,2.449-5.161,4.409-7.485c1.959-2.324,4.557-4.329,7.793-6.016
			c3.235-1.686,6.699-2.837,10.391-3.452s7.496-0.923,11.416-0.923c7.701,0,16.087,0.889,25.156,2.666
			c0.137,3.145,0.296,6.027,0.479,8.647c0.182,2.621,0.615,7.212,1.299,13.774c-4.193-1.686-8.021-2.859-11.484-3.521
			c-3.464-0.66-6.449-0.991-8.955-0.991c-3.555,0-6.506,0.661-8.853,1.982c-2.348,1.322-3.521,2.963-3.521,4.922
			c0,0.912,0.182,1.801,0.547,2.666c0.364,0.866,1.048,1.88,2.051,3.042c1.002,1.162,2.324,2.438,3.965,3.828
			c1.641,1.391,4.215,3.452,7.725,6.187l4.922,3.896c1.458,1.186,3.03,2.621,4.717,4.307c1.686,1.687,3.145,3.35,4.375,4.99
			s2.176,3.145,2.837,4.512c0.66,1.367,1.15,2.746,1.47,4.136c0.318,1.391,0.479,2.883,0.479,4.478c0,4.102-0.98,8.01-2.939,11.724
			c-1.96,3.715-4.74,6.768-8.34,9.16c-3.601,2.393-7.554,4.067-11.86,5.024s-8.853,1.436-13.638,1.436
			C667.578,245.656,658.258,244.585,647.002,242.443z"/>
		<linearGradient id="SVGID_7_" gradientUnits="userSpaceOnUse" x1="706.2391" y1="360.6291" x2="371.066" y2="25.456">
			<stop  offset="0" style="stop-color:#00F2FE"/>
			<stop  offset="0.021" style="stop-color:#03EFFE"/>
			<stop  offset="0.293" style="stop-color:#24D2FE"/>
			<stop  offset="0.554" style="stop-color:#3CBDFE"/>
			<stop  offset="0.796" style="stop-color:#4AB0FE"/>
			<stop  offset="1" style="stop-color:#4FACFE"/>
		</linearGradient>
		<path fill="url(#SVGID_7_)" d="M725.479,243.879l2.646-37.324l1.221-27.207l0.339-12.1c0.091-3.509,0.137-6.881,0.137-10.117
			l-0.068-6.563c7.163,0.092,12.522,0.137,16.082,0.137c2.783,0,7.618-0.045,14.508-0.137c-1.081,13.08-1.778,24.633-2.093,34.658
			h37.209c0.226-3.744,0.44-8.801,0.645-15.171c0.203-6.371,0.306-10.72,0.306-13.048c0-1.232-0.046-3.379-0.137-6.438l16.18,0.137
			c1.683,0,6.462-0.045,14.336-0.137c-1.628,23.425-2.668,40.845-3.12,52.261c-0.453,11.416-0.678,25.1-0.678,41.05l-14.918-0.137
			c-2.235,0-7.572,0.046-16.011,0.137c1.14-10.846,1.915-23.47,2.325-37.871h-37.239l-1.147,37.871l-15.877-0.137
			C738.114,243.742,733.233,243.788,725.479,243.879z"/>
	</g>
</g>
</svg>
